<svg width="56" height="53" viewBox="0 0 56 53" fill="none" xmlns="http://www.w3.org/2000/svg">
  <path fill-rule="evenodd" clip-rule="evenodd" d="M16.986 32.9066L12.261 43.8334C11.3953 45.8395 10.9456 47.3473 10.9456 48.3436C10.9456 49.1275 11.3281 49.8316 12.0933 50.4294C12.8449 51.0139 14.4893 51.4058 17.0061 51.5918V53H0.502441V51.5918C2.6904 51.2132 4.09311 50.7216 4.73742 50.1039C6.05288 48.8817 7.50256 46.3908 9.09319 42.6511L27.5096 0H28.8117L47.0134 43.1028C48.4765 46.5701 49.8054 48.8086 51 49.8515C52.1947 50.8811 53.8591 51.4523 56.0001 51.5852V52.9934H35.3621V51.5852C37.4427 51.4789 38.8521 51.1401 39.5904 50.5556C40.3287 49.971 40.6844 49.2537 40.6844 48.4034C40.6844 47.2809 40.1609 45.514 39.1474 43.0895L34.8722 32.9L26.0398 11.9962L16.986 32.9066Z" fill="#fff"></path>
  <path fill-rule="evenodd" clip-rule="evenodd" d="M12.6111 37.3612C15.8683 33.2212 20.6562 28.5827 33.3477 22.5532V24.6067C18.8422 31.7253 13.0832 42.4262 9.56299 49.617L12.6111 37.3612Z" fill="#fff"></path>
</svg>