<svg width="168" height="61" viewBox="0 0 168 61" fill="none" xmlns="http://www.w3.org/2000/svg">
<g clip-path="url(#clip0_1_380)">
<path fill-rule="evenodd" clip-rule="evenodd" d="M67.976 0H60.4224C59.9374 0 59.5074 0.41156 59.5074 0.898572V8.78337C59.5074 9.27038 59.9511 9.66479 60.4533 9.66479C67.8143 9.66479 67.8143 9.66479 67.8143 9.66479C67.8143 9.15034 67.4016 8.72507 66.8856 8.72507H60.6287C60.5255 8.72507 60.4533 8.65304 60.4533 8.55015V5.0759H65.9431C66.4591 5.0759 66.8719 4.65062 66.8719 4.13274C60.4533 4.13274 60.4533 4.13274 60.4533 4.13274V1.11807C60.4533 1.0289 60.5255 0.956876 60.615 0.956876H67.0335C67.5632 0.956876 67.976 0.528168 67.976 0ZM75.5159 7.631C75.5159 7.08569 75.2958 6.34488 74.2329 5.93332C73.6 5.67952 72.802 5.59378 72.0487 5.50461C71.1062 5.40172 70.0261 5.28511 70.0261 4.87012C70.0261 4.30766 70.9548 3.69032 72.2963 3.69032C73.2422 3.69032 73.9646 3.99899 74.3326 4.36939C74.6422 4.69178 75.1135 4.67806 75.423 4.40026C75.1135 3.44338 73.8442 2.75059 72.2963 2.75059C70.4973 2.75059 69.0802 3.6766 69.0802 4.87012C69.0802 6.1391 70.6005 6.30029 71.942 6.44777C73.5209 6.62611 74.5665 6.80445 74.5665 7.631C74.5665 8.19347 73.6206 8.81081 72.2929 8.81081C71.3057 8.81081 70.5386 8.47127 70.2118 8.07343C69.9023 7.77848 69.4448 7.76476 69.1352 8.02884C69.4001 9.0303 70.7003 9.75396 72.2929 9.75396C74.0987 9.75396 75.5159 8.82452 75.5159 7.631ZM84.0602 6.25914C84.0602 4.31109 82.4951 2.75059 80.5482 2.75059C78.3778 2.75059 76.9193 4.14646 76.9193 6.25914V12.2679C77.4353 12.2679 77.8652 11.8563 77.8652 11.3556V6.25914C77.8652 4.66434 78.8972 3.69375 80.5517 3.69375C81.9688 3.69375 83.1177 4.84269 83.1177 6.25914C83.1177 7.66187 81.9654 8.81081 80.5517 8.81081C79.7709 8.81081 79.0313 8.48842 78.5291 7.93967C78.4982 7.98426 78.4706 8.02884 78.4397 8.07343C78.2023 8.533 78.3674 9.10576 78.8387 9.35612C79.3546 9.62021 79.9463 9.75396 80.5517 9.75396C82.4951 9.75396 84.0602 8.19347 84.0602 6.25914ZM92.1436 6.25914C92.1436 4.14989 90.6817 2.75059 88.5147 2.75059C86.5815 2.75059 85.0027 4.31109 85.0027 6.25914C85.0027 8.19347 86.5815 9.75396 88.5147 9.75396C89.12 9.75396 89.7254 9.62021 90.2414 9.35612C90.6989 9.10576 90.8743 8.533 90.6267 8.07343C90.5957 8.02884 90.5682 7.98426 90.5372 7.93967C90.035 8.48499 89.2989 8.81081 88.5147 8.81081C87.0975 8.81081 85.9486 7.66187 85.9486 6.25914C85.9486 4.84269 87.1009 3.69375 88.5147 3.69375C90.1657 3.69375 91.2011 4.66777 91.2011 6.25914V8.84167C91.2011 9.3424 91.6276 9.75396 92.147 9.75396V6.25914H92.1436ZM100.096 4.78438C99.5356 3.55999 98.311 2.75059 96.911 2.75059C94.9779 2.75059 93.3991 4.32481 93.3991 6.25571C93.3991 8.00826 94.6959 9.45215 96.3779 9.71967V11.0469H96.4088C96.911 11.0469 97.3238 10.6182 97.3238 10.1175V9.73339C98.4004 9.59963 99.3464 8.98229 99.9071 8.08029C99.539 7.77162 98.9783 7.80248 98.6378 8.13859C98.1665 8.55358 97.5611 8.80395 96.911 8.80395C95.4939 8.80395 94.345 7.65501 94.345 6.25571C94.345 4.84269 95.4973 3.69032 96.911 3.69032C97.7091 3.69032 98.4314 4.04357 98.9026 4.63005C99.226 4.95929 99.711 5.0176 100.096 4.78438ZM108.489 6.25914C108.489 4.32481 106.807 2.75059 104.757 2.75059C102.707 2.75059 101.039 4.32481 101.039 6.25914C101.039 8.19347 102.707 9.75396 104.757 9.75396C106.807 9.75396 108.489 8.19347 108.489 6.25914ZM107.529 6.25914C107.529 7.66187 106.291 8.81081 104.757 8.81081C103.237 8.81081 101.985 7.66187 101.985 6.25914C101.985 4.84269 103.24 3.69375 104.757 3.69375C106.291 3.69375 107.529 4.84269 107.529 6.25914Z" fill="white"/>
<path fill-rule="evenodd" clip-rule="evenodd" d="M7.64997 30.7467V38.5698C7.64997 40.2503 7.83227 41.2929 8.20376 41.6976C8.70252 42.2773 9.45927 42.5653 10.4705 42.5653H11.4956V43.2924H0V42.5653H1.01128C2.14295 42.5653 2.96161 42.1949 3.44661 41.461C3.70803 41.0563 3.84562 40.0891 3.84562 38.5698V21.2534C3.84562 19.5729 3.67019 18.5303 3.31246 18.1256C2.79306 17.5459 2.02944 17.2579 1.01128 17.2579H0V16.5308H9.8342C12.2351 16.5308 14.1235 16.7811 15.5132 17.2716C16.896 17.762 18.062 18.5954 19.0148 19.7684C19.9676 20.9379 20.4389 22.3235 20.4389 23.9251C20.4389 26.1098 19.7165 27.8864 18.2719 29.2514C16.8272 30.6164 14.7909 31.3023 12.1526 31.3023C11.5059 31.3023 10.8111 31.2543 10.0612 31.1617C9.30792 31.076 8.50646 30.9319 7.64997 30.7467ZM7.64997 29.6149C8.34479 29.7487 8.96394 29.8516 9.50398 29.9099C10.0371 29.9785 10.5015 30.0093 10.8799 30.0093C12.2489 30.0093 13.4218 29.4777 14.4159 28.4214C15.4066 27.3651 15.9053 26.0001 15.9053 24.3264C15.9053 23.1706 15.668 22.0937 15.1967 21.1059C14.7255 20.1182 14.0513 19.3774 13.1879 18.8869C12.3177 18.3965 11.3339 18.1461 10.2332 18.1461C9.55902 18.1461 8.70252 18.273 7.64997 18.5234V29.6149Z" fill="white"/>
<path fill-rule="evenodd" clip-rule="evenodd" d="M58.2312 17.2578V16.5308H67.663V17.2578H66.6586C65.606 17.2578 64.7977 17.6934 64.2301 18.5748C63.955 18.9864 63.8174 19.9261 63.8174 21.4146V32.2558C63.8174 34.9412 63.556 37.0196 63.0228 38.4978C62.4896 39.9759 61.4371 41.2483 59.8789 42.3047C58.3207 43.361 56.2018 43.8926 53.5188 43.8926C50.5985 43.8926 48.3799 43.3885 46.8664 42.3733C45.3494 41.365 44.2763 39.9999 43.6502 38.292C43.2237 37.1225 43.0173 34.9275 43.0173 31.707V21.2534C43.0173 19.6106 42.7868 18.5371 42.3362 18.0261C41.8856 17.5151 41.1495 17.2578 40.1383 17.2578H39.1339V16.5308H50.7086V17.2578H49.6835C48.5759 17.2578 47.7882 17.6077 47.317 18.3005C46.9868 18.7703 46.8251 19.7615 46.8251 21.2534V32.9108C46.8251 33.9466 46.918 35.1367 47.1072 36.4811C47.3032 37.8187 47.6472 38.8613 48.146 39.6158C48.6516 40.3635 49.3739 40.9808 50.313 41.4713C51.2589 41.9549 52.4112 42.1984 53.7802 42.1984C55.5345 42.1984 57.1065 41.8142 58.4892 41.0563C59.872 40.2949 60.8179 39.314 61.3236 38.1308C61.8292 36.9407 62.0872 34.924 62.0872 32.0843V21.2534C62.0872 19.5866 61.9049 18.544 61.5334 18.1256C61.0209 17.5459 60.2573 17.2578 59.246 17.2578H58.2312Z" fill="white"/>
<path fill-rule="evenodd" clip-rule="evenodd" d="M89.8561 35.9049L90.5028 36.0455L88.1947 43.289H67.4325V42.5619H68.4369C69.5686 42.5619 70.3804 42.1984 70.8654 41.4644C71.1405 41.046 71.2781 40.0788 71.2781 38.5664V21.2534C71.2781 19.5866 71.0958 18.544 70.7243 18.1256C70.2118 17.5459 69.4482 17.2579 68.4369 17.2579H67.4325V16.5308H79.5748V17.2579C78.1507 17.2441 77.1532 17.371 76.5719 17.6488C75.9974 17.9163 75.6087 18.2662 75.3989 18.6777C75.1891 19.0961 75.0825 20.0908 75.0825 21.6581V38.5286C75.0825 39.6261 75.1891 40.3704 75.3989 40.7819C75.5537 41.0632 75.8048 41.2655 76.135 41.3993C76.4584 41.5262 77.4903 41.5947 79.2239 41.5947H81.1811C83.245 41.5947 84.6896 41.4473 85.5186 41.1455C86.3476 40.8437 87.1112 40.3052 87.7992 39.5369C88.4802 38.7687 89.1682 37.558 89.8561 35.9049Z" fill="white"/>
<path fill-rule="evenodd" clip-rule="evenodd" d="M102.363 42.5619V43.289H90.8675V42.5619H91.8203C92.9347 42.5619 93.7362 42.2395 94.2418 41.6016C94.5583 41.1763 94.7131 40.168 94.7131 38.5698V21.2534C94.7131 19.9021 94.6271 19.007 94.4551 18.5748C94.3209 18.2456 94.0492 17.9644 93.6399 17.7277C93.0586 17.4122 92.4532 17.2579 91.8168 17.2579H90.864V16.5308H102.36V17.2579H101.396C100.303 17.2579 99.508 17.5802 99.0093 18.2182C98.6791 18.6434 98.5174 19.6518 98.5174 21.25V38.5629C98.5174 39.9142 98.6068 40.8094 98.7754 41.2415C98.9027 41.5707 99.1813 41.852 99.6044 42.0886C100.172 42.4041 100.764 42.5585 101.4 42.5585H102.363V42.5619Z" fill="white"/>
<path fill-rule="evenodd" clip-rule="evenodd" d="M120.869 15.9272V25.1702H120.14C119.902 23.3936 119.479 21.9806 118.863 20.9311C118.251 19.8816 117.374 19.0482 116.232 18.4275C115.1 17.8101 113.924 17.498 112.71 17.498C111.334 17.498 110.199 17.9165 109.304 18.7499C108.407 19.5833 107.956 20.5401 107.956 21.6033C107.956 22.4162 108.238 23.1638 108.806 23.836C109.628 24.8169 111.571 26.1374 114.646 27.7767C117.157 29.1212 118.87 30.1501 119.785 30.8634C120.704 31.5837 121.412 32.4239 121.904 33.3979C122.396 34.372 122.647 35.3906 122.647 36.4572C122.647 38.4807 121.859 40.223 120.287 41.6909C118.709 43.1588 116.679 43.8893 114.203 43.8893C113.422 43.8893 112.693 43.8276 112.005 43.7075C111.592 43.6389 110.749 43.3988 109.463 42.9804C108.18 42.562 107.364 42.3562 107.02 42.3562C106.69 42.3562 106.425 42.4557 106.236 42.6512C106.047 42.8535 105.906 43.2617 105.81 43.8893H105.08V34.7287H105.81C106.154 36.6458 106.611 38.0863 107.192 39.0329C107.774 39.9863 108.665 40.782 109.858 41.4062C111.052 42.0373 112.362 42.3562 113.783 42.3562C115.431 42.3562 116.738 41.9207 117.687 41.053C118.643 40.1784 119.125 39.1495 119.125 37.9663C119.125 37.3078 118.943 36.6424 118.585 35.9702C118.22 35.298 117.66 34.6704 116.899 34.0873C116.387 33.6895 114.977 32.8561 112.675 31.5768C110.374 30.3044 108.737 29.2824 107.763 28.5244C106.793 27.763 106.05 26.9159 105.552 26.0036C105.046 25.081 104.795 24.0658 104.795 22.9649C104.795 21.0477 105.538 19.3946 107.014 18.0091C108.489 16.6235 110.381 15.9307 112.658 15.9307C114.089 15.9307 115.599 16.2805 117.199 16.9733C117.942 17.3025 118.461 17.4637 118.764 17.4637C119.108 17.4637 119.39 17.3643 119.606 17.1619C119.823 16.9527 119.999 16.5514 120.133 15.9307H120.869V15.9272Z" fill="white"/>
<path fill-rule="evenodd" clip-rule="evenodd" d="M144.961 16.5342L145.243 22.8242H144.493C144.345 21.7198 144.149 20.9276 143.898 20.4577C143.485 19.6963 142.945 19.1339 142.264 18.7772C141.583 18.4136 140.692 18.2319 139.584 18.2319H135.808V38.6521C135.808 40.3018 135.983 41.3307 136.341 41.7388C136.839 42.291 137.61 42.5653 138.649 42.5653H139.574V43.2924H128.161V42.5653H129.124C130.27 42.5653 131.081 42.2224 131.566 41.5364C131.855 41.1112 132.003 40.1509 132.003 38.6521V18.2284H128.787C127.532 18.2284 126.641 18.321 126.114 18.5028C125.426 18.7532 124.845 19.2299 124.353 19.9433C123.868 20.6498 123.576 21.6101 123.483 22.8208H122.733L123.015 16.5308H144.961V16.5342Z" fill="white"/>
<path fill-rule="evenodd" clip-rule="evenodd" d="M148.005 32.9178L145.583 38.5596C145.14 39.5954 144.909 40.3739 144.909 40.8883C144.909 41.293 145.105 41.6566 145.497 41.9652C145.882 42.2671 146.725 42.4694 148.015 42.5654V43.2925H139.557V42.5654C140.678 42.3699 141.397 42.1162 141.727 41.7972C142.401 41.1661 143.144 39.88 143.96 37.9491L153.398 15.9272H154.066L163.394 38.1823C164.144 39.9726 164.825 41.1284 165.437 41.6669C166.05 42.1985 166.903 42.4934 168 42.562V43.2891H157.423V42.562C158.489 42.5071 159.211 42.3322 159.59 42.0304C159.968 41.7286 160.151 41.3582 160.151 40.9192C160.151 40.3396 159.882 39.4273 159.363 38.1755L157.172 32.9144L152.645 22.1212L148.005 32.9178Z" fill="white"/>
<path fill-rule="evenodd" clip-rule="evenodd" d="M145.766 35.1643C147.427 33.0002 149.869 30.5754 156.343 27.4236V28.4971C148.944 32.2183 146.006 37.812 144.211 41.571L145.766 35.1643Z" fill="white"/>
<path fill-rule="evenodd" clip-rule="evenodd" d="M23.8167 32.9588L21.3951 38.6006C20.9514 39.6364 20.7209 40.4149 20.7209 40.9294C20.7209 41.3341 20.917 41.6976 21.3091 42.0063C21.6943 42.3081 22.5371 42.5104 23.827 42.603V43.3301H15.3652V42.603C16.4866 42.4076 17.2055 42.1538 17.5357 41.8348C18.2099 41.2037 18.9529 39.9176 19.7681 37.9867L29.2067 15.9648H29.874L39.2026 38.2199C39.9524 40.0102 40.6335 41.166 41.2458 41.7045C41.8581 42.2361 42.7111 42.531 43.8084 42.5996V43.3267H33.2347V42.5996C34.301 42.5447 35.0233 42.3698 35.4017 42.068C35.7801 41.7662 35.9624 41.3958 35.9624 40.9568C35.9624 40.3772 35.6941 39.4649 35.1747 38.2131L32.9767 32.9588L28.4569 22.1622L23.8167 32.9588Z" fill="white"/>
<path fill-rule="evenodd" clip-rule="evenodd" d="M35.3501 35.1641C33.6887 33 31.2465 30.5752 24.7729 27.4233V28.4968C32.1718 32.218 35.1093 37.8118 36.9048 41.5707L35.3501 35.1641Z" fill="white"/>
<path fill-rule="evenodd" clip-rule="evenodd" d="M38.7933 58.4071C38.7933 56.9769 37.5516 55.8142 36.0347 55.8142C34.5177 55.8142 33.2863 56.9769 33.2863 58.4071C33.2863 59.8372 34.5177 60.9896 36.0347 60.9896C37.5481 60.9896 38.7933 59.8372 38.7933 58.4071ZM38.0847 58.4071C38.0847 59.4428 37.1698 60.2934 36.0347 60.2934C34.9133 60.2934 33.9846 59.4428 33.9846 58.4071C33.9846 57.361 34.9099 56.5105 36.0347 56.5105C37.1663 56.5105 38.0847 57.361 38.0847 58.4071ZM44.9092 60.9896V58.4071C44.9092 56.9803 43.7431 55.8177 42.3156 55.8177C40.8881 55.8177 39.7221 56.9803 39.7221 58.4071V60.9896H39.7427C40.1142 60.9896 40.4203 60.6844 40.4203 60.314V58.4071C40.4203 57.361 41.2699 56.5105 42.3191 56.5105C43.3647 56.5105 44.2178 57.361 44.2178 58.4071V60.314C44.2178 60.6844 44.5239 60.9896 44.8954 60.9896H44.9092ZM51.111 58.4071V53.7256C50.7292 53.7256 50.4127 54.0308 50.4127 54.4115V58.4071C50.4127 59.5732 49.6491 60.2934 48.428 60.2934C47.3823 60.2934 46.5293 59.4531 46.5293 58.4071C46.5293 57.361 47.3789 56.5105 48.428 56.5105V56.5208C49.0059 56.5208 49.5494 56.7505 49.9209 57.1518C49.9415 57.1312 49.9656 57.0969 49.9862 57.0661C50.172 56.7162 50.0413 56.291 49.7042 56.1195C49.3223 55.9137 48.8752 55.8142 48.428 55.8142C47.0005 55.8142 45.8345 56.9769 45.8345 58.4071C45.8345 59.8372 47.0005 60.9896 48.428 60.9896C50.0309 60.9896 51.111 59.9573 51.111 58.4071ZM57.3816 58.0984C57.2509 56.8054 56.0952 55.8142 54.7227 55.8142C53.2402 55.8142 52.0397 56.97 52.0397 58.4139C52.0397 59.8372 53.2402 60.9896 54.7227 60.9896C55.6721 60.9896 56.5423 60.4992 57.0239 59.7515C56.7281 59.5354 56.3256 59.556 56.0642 59.8064C55.7031 60.1116 55.2249 60.2968 54.7227 60.2968C53.7527 60.2968 52.9444 59.6349 52.7724 58.7638C53.2952 58.7638 55.7718 58.7638 56.6971 58.7638C57.0652 58.75 57.4229 58.4791 57.3816 58.0984ZM56.6387 57.9475C56.649 58.0127 56.5836 58.0675 56.5183 58.0675H52.769C52.9444 57.1827 53.7493 56.5139 54.7193 56.5139C55.648 56.5105 56.422 57.1244 56.6387 57.9475ZM64.8149 60.4134C64.6188 60.1528 64.2714 60.043 63.9653 60.1836C63.8139 60.2591 63.6385 60.2934 63.4631 60.2934C62.8199 60.2934 62.2867 59.7686 62.2867 59.1273V56.5105H63.181C63.5525 56.5105 63.869 56.2052 63.869 55.8348V55.8142H62.2867V54.3909C62.2867 54.0308 61.9806 53.729 61.6091 53.729H61.5884V59.1273C61.5884 60.163 62.4277 60.9896 63.4631 60.9896C63.9997 60.9896 64.4778 60.7735 64.8149 60.4134ZM70.6934 58.4139V55.8485H70.6728C70.3013 55.8485 69.9951 56.1538 69.9951 56.5345V58.4139C69.9951 59.4463 69.1455 60.2934 68.0964 60.2934C67.0507 60.2934 66.1977 59.4463 66.1977 58.4139V56.5345C66.1977 56.1538 65.8915 55.8485 65.52 55.8485H65.4994V58.4139C65.4994 59.8372 66.6655 60.9896 68.093 60.9896C69.5273 60.9896 70.6934 59.8372 70.6934 58.4139ZM76.8952 58.4071V53.7256C76.5134 53.7256 76.197 54.0308 76.197 54.4115V58.4071C76.197 59.5732 75.4334 60.2934 74.2122 60.2934C73.1666 60.2934 72.3135 59.4531 72.3135 58.4071C72.3135 57.361 73.1631 56.5105 74.2122 56.5105V56.5208C74.7901 56.5208 75.3336 56.7505 75.7051 57.1518C75.7257 57.1312 75.7498 57.0969 75.7704 57.0661C75.9562 56.7162 75.8255 56.291 75.4884 56.1195C75.1066 55.9137 74.6594 55.8142 74.2122 55.8142C72.7848 55.8142 71.6187 56.9769 71.6187 58.4071C71.6187 59.8372 72.7848 60.9896 74.2122 60.9896C75.8186 60.9896 76.8952 59.9573 76.8952 58.4071ZM83.331 58.4071C83.331 56.9769 82.0892 55.8142 80.5723 55.8142C79.0554 55.8142 77.824 56.9769 77.824 58.4071C77.824 59.8372 79.0554 60.9896 80.5723 60.9896C82.0858 60.9896 83.331 59.8372 83.331 58.4071ZM82.6224 58.4071C82.6224 59.4428 81.7074 60.2934 80.5723 60.2934C79.451 60.2934 78.5222 59.4428 78.5222 58.4071C78.5222 57.361 79.4475 56.5105 80.5723 56.5105C81.704 56.5105 82.6224 57.361 82.6224 58.4071ZM92.5735 58.4071C92.5735 56.8466 91.4935 55.8142 89.8905 55.8142C88.4631 55.8142 87.297 56.9666 87.297 58.4071C87.297 59.8372 88.4631 60.9896 89.8905 60.9896C90.3377 60.9896 90.7849 60.8901 91.1667 60.6946C91.5038 60.5094 91.6345 60.0842 91.4487 59.7481C91.4281 59.7138 91.404 59.6829 91.3834 59.6486C91.0119 60.0533 90.4684 60.2934 89.8905 60.2934C88.8449 60.2934 87.9918 59.4428 87.9918 58.4071C87.9918 57.361 88.8414 56.5105 89.8905 56.5105C91.1116 56.5105 91.8753 57.2307 91.8753 58.4071V60.314C91.8753 60.6844 92.1917 60.9896 92.5735 60.9896V58.4071ZM98.452 57.3164C98.0393 56.411 97.1312 55.8142 96.0958 55.8142C94.6683 55.8142 93.5023 56.9769 93.5023 58.4071C93.5023 59.8372 94.6683 60.9896 96.0958 60.9896C97.0108 60.9896 97.8398 60.5129 98.3076 59.7584C98.0358 59.5286 97.6196 59.5526 97.3685 59.8029C97.0211 60.1082 96.5739 60.2934 96.0924 60.2934C95.0467 60.2934 94.1936 59.4428 94.1936 58.4071C94.1936 57.361 95.0433 56.5105 96.0924 56.5105C96.6806 56.5105 97.2137 56.7711 97.5646 57.2067C97.8088 57.4468 98.1665 57.4913 98.452 57.3164ZM104.654 58.4071C104.654 56.9769 103.412 55.8142 101.895 55.8142C100.378 55.8142 99.1469 56.9769 99.1469 58.4071C99.1469 59.8372 100.378 60.9896 101.895 60.9896C103.412 60.9896 104.654 59.8372 104.654 58.4071ZM103.945 58.4071C103.945 59.4428 103.03 60.2934 101.895 60.2934C100.774 60.2934 99.8451 59.4428 99.8451 58.4071C99.8451 57.361 100.77 56.5105 101.895 56.5105C103.03 56.5105 103.945 57.361 103.945 58.4071ZM110.773 60.9896V58.4071C110.773 56.9803 109.607 55.8177 108.18 55.8177C106.752 55.8177 105.586 56.9803 105.586 58.4071V60.9896H105.607C105.978 60.9896 106.284 60.6844 106.284 60.314V58.4071C106.284 57.361 107.134 56.5105 108.18 56.5105C109.225 56.5105 110.078 57.361 110.078 58.4071V60.314C110.078 60.6844 110.384 60.9896 110.756 60.9896H110.773ZM115.155 60.4134C114.959 60.1528 114.612 60.043 114.306 60.1836C114.154 60.2591 113.979 60.2934 113.804 60.2934C113.16 60.2934 112.627 59.7686 112.627 59.1273V56.5105H113.522C113.893 56.5105 114.209 56.2052 114.209 55.8348V55.8142H112.627V54.3909C112.627 54.0308 112.321 53.729 111.95 53.729H111.929V59.1273C111.929 60.163 112.768 60.9896 113.804 60.9896C114.337 60.9896 114.815 60.7735 115.155 60.4134ZM120.955 58.0984C120.824 56.8054 119.668 55.8142 118.296 55.8142C116.813 55.8142 115.613 56.97 115.613 58.4139C115.613 59.8372 116.813 60.9896 118.296 60.9896C119.245 60.9896 120.115 60.4992 120.597 59.7515C120.301 59.5354 119.899 59.556 119.637 59.8064C119.276 60.1116 118.798 60.2968 118.296 60.2968C117.326 60.2968 116.518 59.6349 116.346 58.7638C116.868 58.7638 119.345 58.7638 120.27 58.7638C120.638 58.75 120.999 58.4791 120.955 58.0984ZM120.212 57.9475C120.222 58.0127 120.157 58.0675 120.091 58.0675H116.342C116.518 57.1827 117.322 56.5139 118.292 56.5139C119.221 56.5105 119.995 57.1244 120.212 57.9475ZM126.613 57.3164C126.2 56.411 125.292 55.8142 124.257 55.8142C122.829 55.8142 121.663 56.9769 121.663 58.4071C121.663 59.8372 122.829 60.9896 124.257 60.9896C125.172 60.9896 126.001 60.5129 126.469 59.7584C126.197 59.5286 125.781 59.5526 125.53 59.8029C125.182 60.1082 124.735 60.2934 124.253 60.2934C123.208 60.2934 122.355 59.4428 122.355 58.4071C122.355 57.361 123.204 56.5105 124.253 56.5105C124.842 56.5105 125.375 56.7711 125.726 57.2067C125.97 57.4468 126.331 57.4913 126.613 57.3164ZM132.653 58.0984C132.523 56.8054 131.367 55.8142 129.994 55.8142C128.512 55.8142 127.311 56.97 127.311 58.4139C127.311 59.8372 128.512 60.9896 129.994 60.9896C130.944 60.9896 131.814 60.4992 132.296 59.7515C132 59.5354 131.597 59.556 131.336 59.8064C130.975 60.1116 130.497 60.2968 129.994 60.2968C129.024 60.2968 128.216 59.6349 128.044 58.7638C128.567 58.7638 131.044 58.7638 131.969 58.7638C132.337 58.75 132.698 58.4791 132.653 58.0984ZM131.91 57.9475C131.921 58.0127 131.855 58.0675 131.79 58.0675H128.041C128.216 57.1827 129.021 56.5139 129.991 56.5139C130.92 56.5105 131.694 57.1244 131.91 57.9475ZM134.562 54.4252C134.562 54.0548 134.256 53.7496 133.885 53.7496H133.864V58.9009C133.864 59.2816 134.181 59.5869 134.562 59.5869V54.4252ZM134.714 60.5129C134.714 60.2419 134.483 60.0224 134.211 60.0224C133.94 60.0224 133.709 60.2385 133.709 60.5129C133.709 60.7838 133.94 61.0033 134.211 61.0033C134.483 60.9999 134.714 60.7838 134.714 60.5129Z" fill="white"/>
</g>
<defs>
<clipPath id="clip0_1_380">
<rect width="168" height="61" fill="white"/>
</clipPath>
</defs>
</svg>
